<svg width="30" height="11" viewBox="0 0 30 11" fill="none" xmlns="http://www.w3.org/2000/svg">
<path d="M7.241 9.09V10.065H6.955C6.37433 10.065 5.97133 9.91333 5.746 9.61C5.52067 9.30667 5.408 8.91667 5.408 8.44V1.472C4.82733 1.30733 4.31167 1.225 3.861 1.225C3.38433 1.225 3.02467 1.33333 2.782 1.55C2.53933 1.76667 2.418 2.122 2.418 2.616V3.565H4.42V4.501H2.418V10H1.352V4.501H0.234V3.565H1.352V2.629C1.352 2.20433 1.43 1.81433 1.586 1.459C1.742 1.095 2.002 0.804666 2.366 0.588C2.73 0.362666 3.21967 0.249999 3.835 0.249999C4.21633 0.249999 4.63233 0.297666 5.083 0.393C5.53367 0.488333 5.99733 0.644333 6.474 0.861V8.388C6.474 8.622 6.513 8.79967 6.591 8.921C6.669 9.03367 6.81633 9.09 7.033 9.09H7.241ZM13.9461 6.386V7.166C13.9461 8.08467 13.7077 8.80833 13.2311 9.337C12.7631 9.86567 12.0914 10.13 11.2161 10.13C10.3494 10.13 9.67772 9.86567 9.20105 9.337C8.72439 8.80833 8.48605 8.08467 8.48605 7.166V6.386C8.48605 5.48467 8.72005 4.76967 9.18805 4.241C9.66472 3.70367 10.3407 3.435 11.2161 3.435C12.0914 3.435 12.7631 3.70367 13.2311 4.241C13.7077 4.76967 13.9461 5.48467 13.9461 6.386ZM12.8411 6.386C12.8411 5.77067 12.7024 5.28967 12.4251 4.943C12.1477 4.58767 11.7447 4.41 11.2161 4.41C10.6961 4.41 10.2931 4.58767 10.0071 4.943C9.72972 5.28967 9.59105 5.77067 9.59105 6.386V7.166C9.59105 7.80733 9.72972 8.30133 10.0071 8.648C10.2931 8.99467 10.6961 9.168 11.2161 9.168C11.7447 9.168 12.1477 8.99467 12.4251 8.648C12.7024 8.30133 12.8411 7.80733 12.8411 7.166V6.386ZM23.5935 3.565L21.9425 10H20.7075L19.3555 4.722L17.9645 10H16.7295L15.0915 3.565H16.1835L16.8335 6.256L17.4185 8.921L18.8095 3.565H19.9405L21.3315 8.947L21.9035 6.269L22.5405 3.565H23.5935ZM26.7111 9.181C27.5778 9.181 28.0111 8.88633 28.0111 8.297C28.0111 8.04567 27.9331 7.84633 27.7771 7.699C27.6211 7.55167 27.3351 7.426 26.9191 7.322L26.2041 7.14C25.6755 7.01 25.2811 6.78467 25.0211 6.464C24.7611 6.13467 24.6311 5.74467 24.6311 5.294C24.6311 4.96467 24.7048 4.66133 24.8521 4.384C24.9995 4.098 25.2335 3.86833 25.5541 3.695C25.8748 3.52167 26.2908 3.435 26.8021 3.435C27.1315 3.435 27.4651 3.474 27.8031 3.552C28.1498 3.62133 28.5008 3.74267 28.8561 3.916L28.5181 4.813C27.8855 4.527 27.3135 4.384 26.8021 4.384C26.0481 4.384 25.6711 4.66567 25.6711 5.229C25.6711 5.44567 25.7405 5.632 25.8791 5.788C26.0178 5.944 26.2778 6.06967 26.6591 6.165L27.3741 6.347C27.9461 6.48567 28.3665 6.711 28.6351 7.023C28.9038 7.335 29.0381 7.738 29.0381 8.232C29.0381 8.58733 28.9601 8.91233 28.8041 9.207C28.6568 9.493 28.4141 9.71833 28.0761 9.883C27.7468 10.0477 27.3005 10.13 26.7371 10.13C26.3645 10.13 25.9918 10.091 25.6191 10.013C25.2551 9.935 24.8781 9.80933 24.4881 9.636L24.7741 8.752C25.1468 8.89933 25.4848 9.00767 25.7881 9.077C26.0915 9.14633 26.3991 9.181 26.7111 9.181Z" fill="white"/>
</svg>
